# xmcd CD database file
#
# Track frame offsets:
#	150
#	24648
#	42920
#	64453
#	78496
#	101703
#	130126
#	146092
#	165260
#	188436
#	208631
#	225998
#	243688
#	260223
#
# Disc length: 3659 seconds
#
# Revision: 0
# Processed by: cddbd v1.5.1PL0 Copyright (c) Steve Scherf et al.
# Submitted via: CDex 1.51
#
DISCID=c40e490e
DTITLE=Bobby Rosario - Homenaje
DYEAR=2004
DGENRE=Salsa
TTITLE0=Homenaje
TTITLE1=Necio
TTITLE2=Causa Y Effecto
TTITLE3=Lo Que Me Hace Cantar
TTITLE4=Rumbo A Betania
TTITLE5=Pastor
TTITLE6=Sigo Pa' Lante
TTITLE7=Sancocho De Instrumentos
TTITLE8=Extiende Tus Manos
TTITLE9=La Gran Fiesta
TTITLE10=Un Dia Mas
TTITLE11=Bozo
TTITLE12=Mientras Alguien Escuche
TTITLE13=Hoy Te Lo Debo A Ti
EXTD=YEAR: 2004
EXTT0=
EXTT1=
EXTT2=
EXTT3=
EXTT4=
EXTT5=
EXTT6=
EXTT7=
EXTT8=
EXTT9=
EXTT10=
EXTT11=
EXTT12=
EXTT13=
PLAYORDER=
